<svg xmlns="http://www.w3.org/2000/svg" xml:space="preserve" width="2048" height="2048" style="shape-rendering:geometricPrecision;text-rendering:geometricPrecision;image-rendering:optimizeQuality;fill-rule:evenodd;clip-rule:evenodd"><defs><style>.fil4{fill:none}.fil1{fill:#bfbfbf}.fil5{fill:#c6c6c7}.fil6{fill:#fffffe}.fil3{fill:#616161;fill-rule:nonzero}</style></defs><g id="Layer_x0020_1"><path d="M1421.44 578.493c71.972-157.339 182.943-163.908 316.987-171.843 16.635-.99 33.68-1.998 53.573-3.606v63.469c-15.766 1.205-33.005 2.225-49.867 3.22-113.329 6.714-207.162 12.268-263.3 134.983l-360.613 793.822-523.367-.347.076-62.682 480.447-.302 56.725-123.957H595.47L399.9 873.632l-.095.057-35.4-61.333-55.457-95.735.126-.126L256 624.559h73.397l2.156 4.482 27.885 48.347h1016.78l45.221-98.895z" style="fill:#d8d8d8"/>
    <path class="fil1" d="M896.003 1211.25H595.472L399.901 873.631l-.094.057-35.4-61.332-55.458-95.736.127-.126-53.075-91.936h73.397l2.155 4.482 27.886 48.348h536.564zM896.003 1398.39l-301.149-.2.076-62.68 301.073-.19z"/><path d="M1421.44 578.493c71.972-157.339 182.943-163.908 316.987-171.843 16.635-.99 33.68-1.998 53.573-3.606v63.469c-15.766 1.205-33.005 2.225-49.867 3.22-113.329 6.714-207.162 12.268-263.3 134.983l-360.613 793.822-222.078-.148h-.14v-63.07h.205l179.17-.113 56.724-123.957H896.002V677.388h480.218l45.22-98.895z" style="fill:#ccc"/><path class="fil3" d="M647.084 1417.73c31.365 0 59.776 12.72 80.33 33.281 20.562 20.556 33.283 48.965 33.283 80.332 0 31.372-12.72 59.775-33.283 80.337-20.554 20.555-48.965 33.275-80.33 33.275-31.373 0-59.776-12.72-80.33-33.275-20.562-20.562-33.283-48.965-33.283-80.337 0-31.367 12.72-59.776 33.283-80.332 20.554-20.562 48.957-33.281 80.33-33.281zm35.551 78.061c-9.095-9.095-21.665-14.724-35.551-14.724-13.886 0-26.456 5.629-35.551 14.725-9.096 9.095-14.725 21.67-14.725 35.55 0 13.887 5.63 26.462 14.725 35.558 9.095 9.095 21.665 14.719 35.551 14.719 13.886 0 26.456-5.624 35.551-14.72 9.096-9.095 14.725-21.67 14.725-35.556 0-13.88-5.63-26.456-14.725-35.551zM1073.81 1417.73c31.372 0 59.776 12.72 80.33 33.281 20.562 20.556 33.283 48.965 33.283 80.332 0 31.372-12.72 59.775-33.283 80.337-20.554 20.555-48.958 33.275-80.33 33.275s-59.776-12.72-80.338-33.275c-20.554-20.562-33.275-48.965-33.275-80.337 0-31.367 12.72-59.776 33.275-80.332 20.562-20.562 48.965-33.281 80.338-33.281zm35.551 78.061c-9.095-9.095-21.665-14.724-35.551-14.724-13.886 0-26.461 5.629-35.558 14.725-9.096 9.095-14.718 21.67-14.718 35.55 0 13.887 5.622 26.462 14.718 35.558 9.097 9.095 21.672 14.719 35.558 14.719s26.456-5.624 35.551-14.72c9.096-9.095 14.725-21.67 14.725-35.556 0-13.88-5.63-26.456-14.725-35.551z"/><path class="fil4" d="M0 0h2048v2048H0z"/><path class="fil4" d="M0 0h2048v2048H0z"/><path class="fil4" d="M255.999 255.999h1536v1536h-1536z"/><path class="fil5" d="M775.752 809.06v288h-64.001v-288zM935.749 809.06v288h-64.001v-288zM1095.75 809.06v288h-64.01v-288z"/><path class="fil6" d="M927.999 800v288h-64.002V800zM1088 800v288h-64.01V800zM768.002 800v288H704V800z"/></g>
</svg>